 <svg  version="1.0" xmlns="http://www.w3.org/2000/svg"  width="225.000000pt" height="225.000000pt" viewBox="0 0 225.000000 225.000000"  preserveAspectRatio="xMidYMid meet">  <g transform="translate(0.000000,225.000000) scale(0.100000,-0.100000)" fill="#b89494" stroke="none"> <path d="M370 1729 c0 -6 8 -13 18 -16 20 -5 76 -109 63 -117 -10 -6 -48 36 -63 69 -6 13 -17 26 -25 29 -11 5 -11 1 -2 -17 6 -12 18 -29 25 -38 16 -18 14 -53 -5 -72 -10 -10 -19 -5 -42 23 -39 46 -39 90 -1 120 l27 21 -25 -7 c-34 -9 -49 -25 -52 -55 -2 -28 20 -89 33 -89 5 0 5 -7 2 -17 -4 -11 -3 -14 5 -9 19 12 14 -5 -14 -41 -24 -32 -25 -33 -4 -33 12 0 18 5 15 10 -3 6 2 10 13 10 10 0 25 12 32 26 13 24 75 64 100 64 5 0 10 -9 10 -19 0 -19 -58 -61 -86 -61 -8 0 -14 -5 -14 -11 0 -6 7 -8 16 -5 9 3 22 6 30 6 19 0 64 48 64 68 0 18 29 41 53 42 9 0 17 5 17 10 0 6 -12 9 -27 8 -35 -2 -75 11 -68 22 3 4 -2 10 -10 14 -8 3 -15 14 -15 25 0 13 -12 27 -30 36 -35 18 -40 18 -40 4z"/> <path d="M1845 1732 c-20 -4 -64 -44 -66 -59 -5 -34 -48 -57 -84 -43 -18 7 -23 6 -19 -3 5 -13 62 -41 78 -38 18 4 95 -41 101 -58 3 -10 17 -23 30 -29 14 -7 29 -22 34 -34 l8 -22 6 23 c3 14 0 24 -9 28 -8 3 -11 9 -8 14 3 5 0 9 -5 9 -14 0 -14 37 -1 45 6 3 10 15 10 26 0 10 4 19 9 19 14 0 23 51 12 64 -6 7 -8 15 -5 19 10 9 -69 44 -91 39z m35 -22 c0 -5 -4 -10 -8 -10 -9 0 -62 -77 -62 -90 0 -10 -26 -20 -34 -13 -9 9 48 112 64 116 27 8 40 7 40 -3z m41 -42 c5 -18 3 -31 -6 -38 -7 -6 -16 -22 -19 -35 -6 -24 -38 -41 -56 -30 -13 8 -8 48 7 67 7 7 17 26 22 42 14 35 42 31 52 -6z"/> <path d="M1740 1562 c1 -24 72 -72 105 -71 14 0 9 6 -18 18 -21 10 -49 28 -62 39 -14 12 -25 19 -25 14z"/> <path d="M582 1456 c-24 -6 -50 -20 -58 -30 -9 -13 -14 -15 -14 -6 0 19 -13 4 -18 -23 -8 -37 -8 -285 1 -280 4 2 7 -3 7 -12 0 -10 -5 -13 -12 -9 -7 4 -4 -2 6 -14 20 -23 32 -29 20 -11 -4 7 -1 10 7 7 8 -3 13 -12 11 -19 -2 -8 0 -11 3 -7 4 4 16 3 27 -3 13 -7 17 -17 13 -32 -5 -18 -4 -19 5 -7 10 13 11 12 6 -3 -3 -10 -6 -21 -6 -23 0 -3 -4 -3 -8 0 -5 3 -5 -16 0 -42 5 -26 9 -55 9 -64 0 -10 5 -18 11 -18 5 0 8 -7 5 -14 -4 -10 -1 -13 9 -9 11 4 15 0 12 -13 -2 -12 3 -19 12 -19 40 0 17 -45 -31 -60 -22 -7 -26 -52 -7 -88 6 -12 14 -28 18 -36 3 -8 23 -23 43 -34 57 -30 121 -17 169 34 22 23 38 34 38 25 0 -26 56 -63 106 -70 66 -9 112 15 140 72 20 43 20 43 32 18 36 -79 99 -105 200 -81 12 3 36 24 54 48 17 23 28 35 25 26 -3 -9 0 -22 6 -28 6 -6 7 -11 2 -11 -5 0 2 -11 15 -25 19 -20 26 -23 38 -12 8 6 17 11 19 10 11 -9 24 1 39 27 16 27 45 49 43 32 -6 -41 20 -72 60 -72 52 0 56 14 59 247 4 209 6 219 36 214 17 -3 75 44 79 65 2 14 0 21 -8 18 -8 -4 -10 9 -5 48 4 29 4 60 -1 69 -9 18 -2 72 10 77 5 1 -3 27 -17 57 -14 30 -28 53 -30 50 -3 -3 -10 3 -17 12 -13 18 -125 32 -125 16 0 -10 -78 -12 -95 -2 -5 3 -28 0 -50 -7 -22 -7 -34 -13 -26 -13 8 -1 11 -4 8 -8 -4 -3 -17 2 -29 13 -14 13 -19 14 -14 4 4 -9 2 -8 -7 3 -8 9 -20 17 -27 17 -8 0 -22 -8 -33 -17 -13 -11 -17 -12 -12 -4 6 11 4 13 -8 8 -9 -3 -19 -2 -22 3 -8 13 -52 13 -60 0 -4 -6 -11 -7 -17 -4 -7 5 -8 2 -3 -7 5 -8 0 -7 -12 4 -22 19 -89 23 -95 5 -2 -6 -14 -13 -27 -15 -15 -2 -20 1 -15 9 5 8 2 9 -9 5 -9 -3 -19 -2 -22 3 -8 13 -48 12 -82 -1 -34 -14 -64 -18 -57 -8 6 10 -53 23 -91 20 -16 -1 -33 -9 -38 -17 -7 -12 -12 -13 -23 -3 -8 7 -14 8 -13 3 4 -21 -2 -32 -19 -36 -15 -4 -18 0 -17 17 2 17 -2 22 -19 21 -11 -1 -30 3 -41 10 -15 8 -31 8 -63 0z m85 -41 c22 -16 43 -70 43 -112 0 -20 -5 -23 -35 -23 -32 0 -35 2 -35 29 0 42 -9 61 -30 61 -25 0 -30 -19 -30 -124 0 -67 4 -98 15 -112 15 -19 15 -19 30 0 8 11 15 35 15 53 0 31 2 33 36 33 l37 0 -7 -47 c-11 -81 -58 -121 -123 -104 -49 13 -68 52 -72 152 -4 112 4 155 34 185 28 28 88 33 122 9z m234 -14 c29 -29 29 -30 29 -148 0 -137 -9 -163 -62 -180 -85 -28 -129 17 -136 136 -9 160 18 221 98 221 33 0 48 -6 71 -29z m150 24 c0 0 8 -54 18 -120 l17 -120 18 121 19 120 41 -2 41 -2 3 -176 2 -176 -31 0 -31 0 4 120 c5 142 -4 137 -23 -12 l-13 -108 -27 0 c-31 0 -29 -8 -53 155 l-14 90 -1 -122 -1 -123 -25 0 c-20 0 -25 5 -25 25 0 14 -1 93 -1 175 0 83 1 151 1 153 0 1 18 2 40 2 22 0 40 0 41 0z m264 -178 l3 -177 -39 0 -39 0 0 179 0 180 36 -2 37 -3 2 -177z m127 83 l38 -95 -2 95 -2 95 29 0 30 -1 3 -177 2 -177 -28 0 c-26 0 -30 6 -61 95 -18 52 -36 95 -38 95 -3 0 -3 -43 -1 -95 l4 -95 -33 0 -33 0 0 181 0 180 27 -3 c25 -3 32 -13 65 -98z m280 89 c23 -12 48 -66 48 -104 0 -22 -4 -25 -35 -25 -33 0 -35 2 -35 33 0 42 -16 60 -42 46 -16 -8 -18 -23 -18 -118 0 -84 3 -111 15 -121 21 -18 45 4 45 41 0 22 -5 29 -20 29 -15 0 -20 7 -20 28 0 26 2 27 55 27 l55 0 0 -92 c0 -92 0 -93 -24 -93 -13 0 -26 5 -28 11 -2 7 -13 5 -32 -5 -21 -11 -35 -12 -57 -4 -47 16 -59 53 -59 173 0 110 12 153 47 174 24 14 79 14 105 0z m-156 -344 c-3 -8 -1 -15 3 -15 5 0 12 6 14 13 4 9 6 9 6 0 1 -6 -3 -15 -9 -18 -5 -3 -10 -15 -10 -26 0 -10 -5 -19 -11 -19 -7 0 -9 11 -6 27 5 26 4 26 -9 8 -19 -26 -18 -10 2 20 18 28 29 33 20 10z m-106 -12 c-8 -2 -22 -7 -30 -10 -8 -4 -18 -6 -21 -5 -4 1 -5 -8 -2 -18 6 -21 -11 -28 -22 -10 -8 13 14 42 25 35 5 -3 11 -1 15 5 3 5 16 10 28 9 14 0 17 -2 7 -6z m-312 -48 c-9 -20 -13 -22 -29 -12 -24 15 -24 33 -2 46 27 15 45 -5 31 -34z m-358 8 c20 -18 33 -41 37 -65 5 -37 5 -38 -25 -38 -17 0 -37 -3 -46 -6 -11 -4 -16 0 -16 14 0 33 -11 52 -30 52 -10 0 -20 -8 -22 -18 -8 -30 14 -68 63 -111 76 -66 100 -148 62 -212 -54 -91 -213 -44 -213 64 0 21 7 26 44 36 25 6 47 11 49 11 2 0 2 -14 -1 -30 -5 -32 11 -60 34 -60 9 0 14 12 14 35 0 30 -11 47 -70 111 -65 69 -70 79 -70 119 0 82 39 124 117 125 33 0 50 -6 73 -27z m260 12 c49 -25 62 -80 58 -239 l-3 -138 -37 -34 c-30 -27 -46 -34 -78 -34 -23 0 -54 7 -70 15 -51 26 -60 58 -60 215 0 151 8 183 52 214 28 20 100 21 138 1z m282 4 c13 -6 32 -22 43 -37 18 -24 20 -43 20 -182 0 -139 -2 -158 -20 -182 -27 -37 -66 -52 -120 -46 -90 11 -109 52 -106 237 2 142 11 176 53 205 26 18 96 21 130 5z m221 -109 l46 -115 1 116 0 116 35 -2 c19 -1 35 -5 35 -9 0 -3 0 -103 0 -221 l0 -215 -33 0 c-27 0 -34 5 -43 33 -6 17 -24 70 -40 115 l-29 84 -3 -116 -3 -116 -39 0 -40 0 0 225 0 225 33 -3 c33 -2 35 -4 80 -117z m-722 -73 l-6 -48 -29 30 c-41 43 -41 57 0 56 19 -1 34 3 34 8 0 6 2 8 4 6 2 -2 0 -26 -3 -52z"/> <path d="M816 1365 c-12 -13 -16 -38 -16 -114 0 -103 12 -140 44 -128 13 5 16 24 16 120 0 86 -4 117 -14 126 -11 9 -18 8 -30 -4z"/> <path d="M957 973 c-13 -12 -8 -288 5 -301 16 -16 23 -15 42 4 13 12 16 40 16 140 0 69 -5 134 -10 145 -10 19 -40 26 -53 12z m44 -176 c2 -61 -2 -82 -15 -95 -15 -15 -16 -15 -17 3 -2 64 3 194 8 215 6 24 7 23 14 -10 4 -19 9 -70 10 -113z"/> <path d="M1247 973 c-4 -3 -6 -61 -6 -127 1 -105 3 -114 10 -66 4 30 6 63 3 73 -3 10 -1 23 4 30 5 7 14 26 21 42 7 18 10 21 7 8 -2 -13 0 -23 5 -23 5 0 6 -13 3 -29 -4 -16 -7 -64 -8 -107 -1 -52 -5 -79 -13 -81 -7 -3 -13 2 -13 11 0 9 -4 16 -10 16 -18 0 -11 -39 9 -50 15 -7 23 -6 35 6 13 12 16 41 16 148 0 89 -4 136 -12 144 -13 13 -41 16 -51 5z"/> </g> </svg> 